<?xml version="1.0" encoding="UTF-8" standalone="no"?>
<!-- Created with Inkscape (http://www.inkscape.org/) -->

<svg
   width="31.999994mm"
   height="31.99999mm"
   viewBox="0 0 31.999994 31.99999"
   version="1.1"
   id="svg7083"
   inkscape:version="1.2.2 (732a01da63, 2022-12-09, custom)"
   sodipodi:docname="ball.svg"
   xmlns:inkscape="http://www.inkscape.org/namespaces/inkscape"
   xmlns:sodipodi="http://sodipodi.sourceforge.net/DTD/sodipodi-0.dtd"
   xmlns="http://www.w3.org/2000/svg"
   xmlns:svg="http://www.w3.org/2000/svg">
  <sodipodi:namedview
     id="namedview7085"
     pagecolor="#ffffff"
     bordercolor="#000000"
     borderopacity="0.25"
     inkscape:showpageshadow="2"
     inkscape:pageopacity="0.0"
     inkscape:pagecheckerboard="0"
     inkscape:deskcolor="#d1d1d1"
     inkscape:document-units="mm"
     showgrid="false"
     inkscape:zoom="4.2055977"
     inkscape:cx="46.366775"
     inkscape:cy="52.78679"
     inkscape:window-width="1920"
     inkscape:window-height="1043"
     inkscape:window-x="0"
     inkscape:window-y="184"
     inkscape:window-maximized="1"
     inkscape:current-layer="layer1" />
  <defs
     id="defs7080">
    <clipPath
       clipPathUnits="userSpaceOnUse"
       id="clipPath14349">
      <path
         id="path14351"
         style="fill:none;stroke:#000000;stroke-width:4.59999;stroke-linecap:round;stroke-dasharray:none"
         d="m 113.45363,124.0236 a 16,16 0 0 1 -15.999995,15.99999 16,16 0 0 1 -16,-15.99999 16,16 0 0 1 16,-16 16,16 0 0 1 15.999995,16 z" />
    </clipPath>
  </defs>
  <g
     inkscape:label="Layer 1"
     inkscape:groupmode="layer"
     id="layer1"
     transform="translate(-81.453635,-108.0236)">
    <g
       id="g14343"
       clip-path="url(#clipPath14349)">
      <g
         id="g10564"
         clip-path="none">
        <g
           id="path8764-3-61"
           inkscape:transform-center-x="1.1818956e-06"
           inkscape:transform-center-y="-1.5043823e-06"
           transform="translate(0.13712011,10.436451)">
          <path
             style="color:#000000;fill:#ffffff;stroke-width:2;stroke-linecap:round;-inkscape-stroke:none"
             d="m 97.174881,121.43338 -3.432958,1.89999 -3.361916,-2.02304 0.07104,-3.92302 3.432959,-1.89999 3.361916,2.02304 z"
             id="path11777" />
          <path
             style="color:#000000;fill:#000000;stroke-linecap:round;-inkscape-stroke:none"
             d="m 93.904297,114.33203 -4.44336,2.45899 -0.0918,5.07812 4.351562,2.61914 4.443359,-2.45898 0.0098,-0.57813 0.08203,-4.5 z m -0.04102,2.31055 2.373047,1.42773 -0.05078,2.76758 -2.421875,1.3418 -2.373047,-1.42774 0.05078,-2.76953 z"
             id="path11774" />
        </g>
        <g
           id="path8764-3-62"
           inkscape:transform-center-x="1.1818956e-06"
           inkscape:transform-center-y="-1.5043823e-06"
           transform="translate(6.9319945,10.5595)">
          <path
             style="color:#000000;fill:#ffffff;stroke-width:2;stroke-linecap:round;-inkscape-stroke:none"
             d="m 97.174881,121.43338 -3.432958,1.89999 -3.361916,-2.02304 0.07104,-3.92302 3.432959,-1.89999 3.361916,2.02304 z"
             id="path11771" />
          <path
             style="color:#000000;fill:#000000;stroke-linecap:round;-inkscape-stroke:none"
             d="m 93.904297,114.33203 -4.44336,2.45899 -0.0918,5.07812 4.351562,2.61914 4.443359,-2.45898 0.0098,-0.57813 0.08203,-4.5 z m -0.04102,2.31055 2.373047,1.42773 -0.05078,2.76758 -2.421875,1.3418 -2.373047,-1.42774 0.05078,-2.76953 z"
             id="path11768" />
        </g>
        <g
           id="path8764-3-0"
           inkscape:transform-center-x="1.1818956e-06"
           inkscape:transform-center-y="-1.5043823e-06"
           transform="translate(10.435995,4.7364905)">
          <path
             style="color:#000000;fill:#ffffff;stroke-width:2;stroke-linecap:round;-inkscape-stroke:none"
             d="m 97.174881,121.43338 -3.432958,1.89999 -3.361916,-2.02304 0.07104,-3.92302 3.432959,-1.89999 3.361916,2.02304 z"
             id="path11765" />
          <path
             style="color:#000000;fill:#000000;stroke-linecap:round;-inkscape-stroke:none"
             d="m 93.904297,114.33203 -4.44336,2.45899 -0.0918,5.07812 4.351562,2.61914 4.443359,-2.45898 0.0098,-0.57813 0.08203,-4.5 z m -0.04102,2.31055 2.373047,1.42773 -0.05078,2.76758 -2.421875,1.3418 -2.373047,-1.42774 0.05078,-2.76953 z"
             id="path11762" />
        </g>
        <g
           id="path8764"
           inkscape:transform-center-x="1.1818956e-06"
           inkscape:transform-center-y="-1.5043823e-06"
           transform="translate(3.6411209,4.6134415)">
          <path
             style="color:#000000;fill:#000000;stroke-width:2;stroke-linecap:round;-inkscape-stroke:none"
             d="m 97.174881,121.43338 -3.432958,1.89999 -3.361916,-2.02304 0.07104,-3.92302 3.432959,-1.89999 3.361916,2.02304 z"
             id="path11759" />
          <path
             style="color:#000000;fill:#000000;stroke-linecap:round;-inkscape-stroke:none"
             d="m 93.904297,114.33203 -4.44336,2.45899 -0.0918,5.07812 4.351562,2.61914 4.443359,-2.45898 0.0098,-0.57813 0.08203,-4.5 z m -0.04102,2.31055 2.373047,1.42773 -0.05078,2.76758 -2.421875,1.3418 -2.373047,-1.42774 0.05078,-2.76953 z"
             id="path11756" />
        </g>
        <g
           id="path8764-3"
           inkscape:transform-center-x="1.1818956e-06"
           inkscape:transform-center-y="-1.5043823e-06"
           transform="translate(7.1451217,-1.2095678)">
          <path
             style="color:#000000;fill:#ffffff;stroke-width:2;stroke-linecap:round;-inkscape-stroke:none"
             d="m 97.174881,121.43338 -3.432958,1.89999 -3.361916,-2.02304 0.07104,-3.92302 3.432959,-1.89999 3.361916,2.02304 z"
             id="path11753" />
          <path
             style="color:#000000;fill:#000000;stroke-linecap:round;-inkscape-stroke:none"
             d="m 93.904297,114.33203 -4.44336,2.45899 -0.0918,5.07812 4.351562,2.61914 4.443359,-2.45898 0.0098,-0.57813 0.08203,-4.5 z m -0.04102,2.31055 2.373047,1.42773 -0.05078,2.76758 -2.421875,1.3418 -2.373047,-1.42774 0.05078,-2.76953 z"
             id="path11750" />
        </g>
        <g
           id="path8764-3-6"
           inkscape:transform-center-x="1.1818956e-06"
           inkscape:transform-center-y="-1.5043823e-06"
           transform="translate(0.35024728,-1.3326168)">
          <path
             style="color:#000000;fill:#ffffff;stroke-width:2;stroke-linecap:round;-inkscape-stroke:none"
             d="m 97.174881,121.43338 -3.432958,1.89999 -3.361916,-2.02304 0.07104,-3.92302 3.432959,-1.89999 3.361916,2.02304 z"
             id="path11747" />
          <path
             style="color:#000000;fill:#000000;stroke-linecap:round;-inkscape-stroke:none"
             d="m 93.904297,114.33203 -4.44336,2.45899 -0.0918,5.07812 4.351562,2.61914 4.443359,-2.45898 0.0098,-0.57813 0.08203,-4.5 z m -0.04102,2.31055 2.373047,1.42773 -0.05078,2.76758 -2.421875,1.3418 -2.373047,-1.42774 0.05078,-2.76953 z"
             id="path11744" />
        </g>
        <g
           id="path8764-3-8"
           inkscape:transform-center-x="1.1818956e-06"
           inkscape:transform-center-y="-1.5043823e-06"
           transform="translate(-3.1537535,4.4903927)">
          <path
             style="color:#000000;fill:#ffffff;stroke-width:2;stroke-linecap:round;-inkscape-stroke:none"
             d="m 97.174881,121.43338 -3.432958,1.89999 -3.361916,-2.02304 0.07104,-3.92302 3.432959,-1.89999 3.361916,2.02304 z"
             id="path11741" />
          <path
             style="color:#000000;fill:#000000;stroke-linecap:round;-inkscape-stroke:none"
             d="m 93.904297,114.33203 -4.44336,2.45899 -0.0918,5.07812 4.351562,2.61914 4.443359,-2.45898 0.0098,-0.57813 0.08203,-4.5 z m -0.04102,2.31055 2.373047,1.42773 -0.05078,2.76758 -2.421875,1.3418 -2.373047,-1.42774 0.05078,-2.76953 z"
             id="path11738" />
        </g>
        <g
           id="path8764-3-7"
           inkscape:transform-center-x="1.1818956e-06"
           inkscape:transform-center-y="-1.5043823e-06"
           transform="translate(3.8542481,-7.1556261)">
          <path
             style="color:#000000;fill:#000000;stroke-width:2;stroke-linecap:round;-inkscape-stroke:none"
             d="m 97.174881,121.43338 -3.432958,1.89999 -3.361916,-2.02304 0.07104,-3.92302 3.432959,-1.89999 3.361916,2.02304 z"
             id="path11735" />
          <path
             style="color:#000000;fill:#000000;stroke-linecap:round;-inkscape-stroke:none"
             d="m 93.904297,114.33203 -4.44336,2.45899 -0.0918,5.07812 4.351562,2.61914 4.443359,-2.45898 0.0098,-0.57813 0.08203,-4.5 z m -0.04102,2.31055 2.373047,1.42773 -0.05078,2.76758 -2.421875,1.3418 -2.373047,-1.42774 0.05078,-2.76953 z"
             id="path11732" />
        </g>
        <g
           id="path8764-3-9"
           inkscape:transform-center-x="1.1818956e-06"
           inkscape:transform-center-y="-1.5043823e-06"
           transform="translate(10.649122,-7.0325771)">
          <path
             style="color:#000000;fill:#ffffff;stroke-width:2;stroke-linecap:round;-inkscape-stroke:none"
             d="m 97.174881,121.43338 -3.432958,1.89999 -3.361916,-2.02304 0.07104,-3.92302 3.432959,-1.89999 3.361916,2.02304 z"
             id="path11729" />
          <path
             style="color:#000000;fill:#000000;stroke-linecap:round;-inkscape-stroke:none"
             d="m 93.904297,114.33203 -4.44336,2.45899 -0.0918,5.07812 4.351562,2.61914 4.443359,-2.45898 0.0098,-0.57813 0.08203,-4.5 z m -0.04102,2.31055 2.373047,1.42773 -0.05078,2.76758 -2.421875,1.3418 -2.373047,-1.42774 0.05078,-2.76953 z"
             id="path11726" />
        </g>
        <g
           id="path8764-3-2"
           inkscape:transform-center-x="1.1818956e-06"
           inkscape:transform-center-y="-1.5043823e-06"
           transform="translate(13.939996,-1.0865188)">
          <path
             style="color:#000000;fill:#000000;stroke-width:2;stroke-linecap:round;-inkscape-stroke:none"
             d="m 97.174881,121.43338 -3.432958,1.89999 -3.361916,-2.02304 0.07104,-3.92302 3.432959,-1.89999 3.361916,2.02304 z"
             id="path11723" />
          <path
             style="color:#000000;fill:#000000;stroke-linecap:round;-inkscape-stroke:none"
             d="m 93.904297,114.33203 -4.44336,2.45899 -0.0918,5.07812 4.351562,2.61914 4.443359,-2.45898 0.0098,-0.57813 0.08203,-4.5 z m -0.04102,2.31055 2.373047,1.42773 -0.05078,2.76758 -2.421875,1.3418 -2.373047,-1.42774 0.05078,-2.76953 z"
             id="path11720" />
        </g>
        <g
           id="path8764-3-02"
           inkscape:transform-center-x="1.1818956e-06"
           inkscape:transform-center-y="-1.5043823e-06"
           transform="translate(13.726869,10.682549)">
          <path
             style="color:#000000;fill:#000000;stroke-width:2;stroke-linecap:round;-inkscape-stroke:none"
             d="m 97.174881,121.43338 -3.432958,1.89999 -3.361916,-2.02304 0.07104,-3.92302 3.432959,-1.89999 3.361916,2.02304 z"
             id="path11717" />
          <path
             style="color:#000000;fill:#000000;stroke-linecap:round;-inkscape-stroke:none"
             d="m 93.904297,114.33203 -4.44336,2.45899 -0.0918,5.07812 4.351562,2.61914 4.443359,-2.45898 0.0098,-0.57813 0.08203,-4.5 z m -0.04102,2.31055 2.373047,1.42773 -0.05078,2.76758 -2.421875,1.3418 -2.373047,-1.42774 0.05078,-2.76953 z"
             id="path11714" />
        </g>
        <g
           id="path8764-3-3"
           inkscape:transform-center-x="1.1818956e-06"
           inkscape:transform-center-y="-1.5043823e-06"
           transform="translate(17.23087,4.8595397)">
          <path
             style="color:#000000;fill:#ffffff;stroke-width:2;stroke-linecap:round;-inkscape-stroke:none"
             d="m 97.174881,121.43338 -3.432958,1.89999 -3.361916,-2.02304 0.07104,-3.92302 3.432959,-1.89999 3.361916,2.02304 z"
             id="path11711" />
          <path
             style="color:#000000;fill:#000000;stroke-linecap:round;-inkscape-stroke:none"
             d="m 93.904297,114.33203 -4.44336,2.45899 -0.0918,5.07812 4.351562,2.61914 4.443359,-2.45898 0.0098,-0.57813 0.08203,-4.5 z m -0.04102,2.31055 2.373047,1.42773 -0.05078,2.76758 -2.421875,1.3418 -2.373047,-1.42774 0.05078,-2.76953 z"
             id="path11708" />
        </g>
        <g
           id="path8764-3-75"
           inkscape:transform-center-x="1.1818956e-06"
           inkscape:transform-center-y="-1.5043823e-06"
           transform="translate(10.222868,16.505558)">
          <path
             style="color:#000000;fill:#ffffff;stroke-width:2;stroke-linecap:round;-inkscape-stroke:none"
             d="m 97.174881,121.43338 -3.432958,1.89999 -3.361916,-2.02304 0.07104,-3.92302 3.432959,-1.89999 3.361916,2.02304 z"
             id="path11705" />
          <path
             style="color:#000000;fill:#000000;stroke-linecap:round;-inkscape-stroke:none"
             d="m 93.904297,114.33203 -4.44336,2.45899 -0.0918,5.07812 4.351562,2.61914 4.443359,-2.45898 0.0098,-0.57813 0.08203,-4.5 z m -0.04102,2.31055 2.373047,1.42773 -0.05078,2.76758 -2.421875,1.3418 -2.373047,-1.42774 0.05078,-2.76953 z"
             id="path11702" />
        </g>
        <g
           id="path8764-3-92"
           inkscape:transform-center-x="1.1818956e-06"
           inkscape:transform-center-y="-1.5043823e-06"
           transform="translate(3.4279937,16.382509)">
          <path
             style="color:#000000;fill:#000002;stroke-width:2;stroke-linecap:round;-inkscape-stroke:none"
             d="m 97.174881,121.43338 -3.432958,1.89999 -3.361916,-2.02304 0.07104,-3.92302 3.432959,-1.89999 3.361916,2.02304 z"
             id="path11699" />
          <path
             style="color:#000000;fill:#000000;stroke-linecap:round;-inkscape-stroke:none"
             d="m 93.904297,114.33203 -4.44336,2.45899 -0.0918,5.07812 4.351562,2.61914 4.443359,-2.45898 0.0098,-0.57813 0.08203,-4.5 z m -0.04102,2.31055 2.373047,1.42773 -0.05078,2.76758 -2.421875,1.3418 -2.373047,-1.42774 0.05078,-2.76953 z"
             id="path11696" />
        </g>
        <g
           id="path8764-3-28"
           inkscape:transform-center-x="1.1818956e-06"
           inkscape:transform-center-y="-1.5043823e-06"
           transform="translate(-3.3668807,16.25946)">
          <path
             style="color:#000000;fill:#ffffff;stroke-width:2;stroke-linecap:round;-inkscape-stroke:none"
             d="m 97.174881,121.43338 -3.432958,1.89999 -3.361916,-2.02304 0.07104,-3.92302 3.432959,-1.89999 3.361916,2.02304 z"
             id="path11693" />
          <path
             style="color:#000000;fill:#000000;stroke-linecap:round;-inkscape-stroke:none"
             d="m 93.904297,114.33203 -4.44336,2.45899 -0.0918,5.07812 4.351562,2.61914 4.443359,-2.45898 0.0098,-0.57813 0.08203,-4.5 z m -0.04102,2.31055 2.373047,1.42773 -0.05078,2.76758 -2.421875,1.3418 -2.373047,-1.42774 0.05078,-2.76953 z"
             id="path11690" />
        </g>
        <g
           id="path8764-3-97"
           inkscape:transform-center-x="1.1818956e-06"
           inkscape:transform-center-y="-1.5043823e-06"
           transform="translate(-6.6577543,10.313402)">
          <path
             style="color:#000000;fill:#000000;stroke-width:2;stroke-linecap:round;-inkscape-stroke:none"
             d="m 97.174881,121.43338 -3.432958,1.89999 -3.361916,-2.02304 0.07104,-3.92302 3.432959,-1.89999 3.361916,2.02304 z"
             id="path11687" />
          <path
             style="color:#000000;fill:#000000;stroke-linecap:round;-inkscape-stroke:none"
             d="m 93.904297,114.33203 -4.44336,2.45899 -0.0918,5.07812 4.351562,2.61914 4.443359,-2.45898 0.0098,-0.57813 0.08203,-4.5 z m -0.04102,2.31055 2.373047,1.42773 -0.05078,2.76758 -2.421875,1.3418 -2.373047,-1.42774 0.05078,-2.76953 z"
             id="path11684" />
        </g>
        <g
           id="path8764-3-36"
           inkscape:transform-center-x="1.1818956e-06"
           inkscape:transform-center-y="-1.5043823e-06"
           transform="translate(-9.9486279,4.3673437)">
          <path
             style="color:#000000;fill:#ffffff;stroke-width:2;stroke-linecap:round;-inkscape-stroke:none"
             d="m 97.174881,121.43338 -3.432958,1.89999 -3.361916,-2.02304 0.07104,-3.92302 3.432959,-1.89999 3.361916,2.02304 z"
             id="path11681" />
          <path
             style="color:#000000;fill:#000000;stroke-linecap:round;-inkscape-stroke:none"
             d="m 93.904297,114.33203 -4.44336,2.45899 -0.0918,5.07812 4.351562,2.61914 4.443359,-2.45898 0.0098,-0.57813 0.08203,-4.5 z m -0.04102,2.31055 2.373047,1.42773 -0.05078,2.76758 -2.421875,1.3418 -2.373047,-1.42774 0.05078,-2.76953 z"
             id="path11678" />
        </g>
        <g
           id="path8764-3-1"
           inkscape:transform-center-x="1.1818956e-06"
           inkscape:transform-center-y="-1.5043823e-06"
           transform="translate(-6.4446271,-1.4556656)">
          <path
             style="color:#000000;fill:#000000;stroke-width:2;stroke-linecap:round;-inkscape-stroke:none"
             d="m 97.174881,121.43338 -3.432958,1.89999 -3.361916,-2.02304 0.07104,-3.92302 3.432959,-1.89999 3.361916,2.02304 z"
             id="path11675" />
          <path
             style="color:#000000;fill:#000000;stroke-linecap:round;-inkscape-stroke:none"
             d="m 93.904297,114.33203 -4.44336,2.45899 -0.0918,5.07812 4.351562,2.61914 4.443359,-2.45898 0.0098,-0.57813 0.08203,-4.5 z m -0.04102,2.31055 2.373047,1.42773 -0.05078,2.76758 -2.421875,1.3418 -2.373047,-1.42774 0.05078,-2.76953 z"
             id="path11672" />
        </g>
        <g
           id="path8764-3-29"
           inkscape:transform-center-x="1.1818956e-06"
           inkscape:transform-center-y="-1.5043823e-06"
           transform="translate(-2.9406263,-7.2786751)">
          <path
             style="color:#000000;fill:#ffffff;stroke-width:2;stroke-linecap:round;-inkscape-stroke:none"
             d="m 97.174881,121.43338 -3.432958,1.89999 -3.361916,-2.02304 0.07104,-3.92302 3.432959,-1.89999 3.361916,2.02304 z"
             id="path11669" />
          <path
             style="color:#000000;fill:#000000;stroke-linecap:round;-inkscape-stroke:none"
             d="m 93.904297,114.33203 -4.44336,2.45899 -0.0918,5.07812 4.351562,2.61914 4.443359,-2.45898 0.0098,-0.57813 0.08203,-4.5 z m -0.04102,2.31055 2.373047,1.42773 -0.05078,2.76758 -2.421875,1.3418 -2.373047,-1.42774 0.05078,-2.76953 z"
             id="path11666" />
        </g>
      </g>
      <circle
         style="fill:none;fill-opacity:1;stroke:#000000;stroke-width:2;stroke-linecap:round;stroke-dasharray:none;stroke-opacity:1"
         id="path12515"
         cx="97.454086"
         cy="124.02379"
         r="15" />
    </g>
  </g>
</svg>
